<svg data-v-0dd9719b="" version="1.0" xmlns="http://www.w3.org/2000/svg" xmlns:xlink="http://www.w3.org/1999/xlink" width="100%" height="100%" viewBox="0 0 340.000000 250.000000" preserveAspectRatio="xMidYMid meet" color-interpolation-filters="sRGB" style="margin: auto;"> <rect data-v-0dd9719b="" x="0" y="0" width="100%" height="100%" fill="#fff" fill-opacity="1" class="background"></rect> <rect data-v-0dd9719b="" x="0" y="0" width="100%" height="100%" fill="url(#watermark)" fill-opacity="1" class="watermarklayer"></rect> <g data-v-0dd9719b="" fill="#333" class="icon-text-wrapper icon-svg-group iconsvg" transform="translate(49.019996643066406,96.76789283752441)"><g class="iconsvg-imagesvg" transform="translate(0,0)"><g><rect fill="#333" fill-opacity="0" stroke-width="2" x="0" y="0" width="60" height="56.464211100863906" class="image-rect"></rect> <svg x="0" y="0" width="60" height="56.464211100863906" filtersec="colorsb3288282471" class="image-svg-svg primary" style="overflow: visible;"><svg xmlns="http://www.w3.org/2000/svg" viewBox="0.28515467047691345 0.27830439805984497 105.97604370117188 99.73069763183594"><path d="M91.2 16a53.15 53.15 0 0 1-1 75.14l-4.65-4.78A46.43 46.43 0 1 0 6.68 52.57a46.06 46.06 0 0 0 13.17 33l-4.78 4.67A53.17 53.17 0 0 1 91.2 16z" fill="#2b3990"></path><path d="M25.37 24.66A39.76 39.76 0 1 1 80.89 81.6l-4.65-4.78a33.09 33.09 0 1 0-46.83-.56l-4.78 4.66a39.79 39.79 0 0 1 .74-56.26z" fill="#2b3990"></path><path d="M34.68 34.21a26.43 26.43 0 1 1 36.9 37.84l-4.66-4.78A19.74 19.74 0 1 0 39 66.94l-4.81 4.66a26.44 26.44 0 0 1 .49-37.39z" fill="#2b3990"></path><path d="M44 43.76A13.09 13.09 0 1 1 62.27 62.5l-4.66-4.77a6.42 6.42 0 1 0-9.08-.11l-4.78 4.66A13.1 13.1 0 0 1 44 43.76z" fill="#2b3990"></path><path fill="#00aeef" d="M56.678 94.65l4.868-4.748 4.741 4.862-4.868 4.747zM38.09 94.553l4.868-4.747 4.74 4.86-4.868 4.748zM57.034 76.076l4.868-4.747 4.748 4.868-4.869 4.748zM66.147 85.413l4.868-4.748 4.74 4.862-4.868 4.747zM75.613 95.14l4.868-4.747 4.748 4.868-4.868 4.748zM48.142 66.954l4.868-4.748 4.74 4.861-4.868 4.748zM38.673 76.19l4.868-4.747 4.741 4.861-4.868 4.748zM52.44 80.57v-.01l-4.88 4.75.01.01 4.74 4.87 4.88-4.75-4.75-4.87zM29.207 85.43l4.869-4.747 4.74 4.861-4.868 4.748zM19.246 95.136l4.868-4.748 4.74 4.862-4.868 4.747z"></path></svg></svg> <!----></g></g> <g transform="translate(67,3.348043441772461)"><g data-gra="path-name" fill-rule="" class="tp-name iconsvg-namesvg" transform="translate(0,0)"><g transform="scale(1)"><g><path d="M7.06 6.17L7.06-9.86 34.74-9.86 34.74-10.8 38.3-10.8 38.3 2.11Q38.3 3.78 37.1 4.97 35.91 6.17 34.24 6.17L34.24 6.17 7.06 6.17ZM10.57-6.3L10.57 2.61 34.24 2.61Q34.74 2.61 34.74 2.11L34.74 2.11 34.74-6.3 10.57-6.3ZM36.67-17.19L36.67-13.63 8.82-13.63 8.82-17.19 36.67-17.19ZM42.43-17.64L39.42-15.75 33.98-24.16 13.46-24.16 13.46-27.72 35.91-27.72 42.43-17.64ZM9.45-28.17L12.78-26.86Q11.83-24.52 10.53-22.39 9.22-20.25 7.99-18.61 6.75-16.96 5.85-15.95 4.95-14.94 4.86-14.85L4.86-14.85 2.29-17.28Q2.29-17.28 3.1-18.2 3.92-19.13 5.06-20.63 6.21-22.14 7.42-24.1 8.64-26.05 9.45-28.17L9.45-28.17ZM84.19 2.34L84.19-1.84 87.75-1.84 87.75 2.34Q87.75 4 86.56 5.2 85.37 6.39 83.7 6.39L83.7 6.39 65.38 6.39 65.38-26.95 82.75-26.95 82.75-27.99 86.31-27.99 86.31-13.68Q86.31-11.97 85.12-10.8 83.92-9.63 82.26-9.63L82.26-9.63 68.94-9.63 68.94 2.83 83.7 2.83Q84.19 2.83 84.19 2.34L84.19 2.34ZM82.75-13.68L82.75-23.4 77.76-23.4 77.76-13.14 82.26-13.14Q82.75-13.14 82.75-13.68L82.75-13.68ZM74.25-23.4L68.94-23.4 68.94-13.14 74.25-13.14 74.25-23.4ZM63.36-27.86L63.36 2.43Q63.36 4.14 62.19 5.31 61.02 6.48 59.31 6.48L59.31 6.48 56.07 6.48 56.07 2.97 59.31 2.97Q59.85 2.97 59.85 2.43L59.85 2.43 59.85-4.32 52.97-4.32Q52.74-2.07 52.4-0.14 52.06 1.8 51.73 3.26 51.39 4.72 51.16 5.63 50.94 6.52 50.89 6.61L50.89 6.61 49.23 6.12 47.52 5.63Q47.52 5.58 47.88 4.23 48.24 2.88 48.67 0.65 49.09-1.57 49.43-4.39 49.77-7.2 49.77-10.17L49.77-10.17 49.77-26.91 59.85-26.91 59.85-27.86 63.36-27.86ZM59.85-23.36L53.28-23.36 53.28-17.77 59.85-17.77 59.85-23.36ZM53.23-7.88L59.85-7.88 59.85-14.26 53.28-14.26 53.28-10.17Q53.28-9.58 53.28-9.02 53.28-8.46 53.23-7.88L53.23-7.88ZM114.21-28.13L114.21-21.42 132.07-21.42 132.07-17.86 113.81-17.86Q113.13-14.85 111.51-11.92 109.89-9 107.86-6.32 105.84-3.65 103.64-1.35 101.43 0.94 99.58 2.63 97.74 4.32 96.48 5.35 95.22 6.39 95.04 6.52L95.04 6.52 92.88 3.73Q92.92 3.69 94 2.81 95.08 1.93 96.77 0.4 98.46-1.13 100.48-3.19 102.51-5.26 104.42-7.65 106.34-10.04 107.89-12.64 109.44-15.25 110.16-17.86L110.16-17.86 92.92-17.86 92.92-21.42 110.66-21.42 110.66-28.13 114.21-28.13ZM113.85-12.42L116.64-14.63 131.53 3.96 128.75 6.17 113.85-12.42ZM108.9-3.46L111.6-5.71 117.27 1.17 114.57 3.42 108.9-3.46ZM148.23-5.71L152.19 0.45 149.18 2.38 145.26-3.82 148.23-5.71ZM172.26-5.71L175.23-3.82 171.31 2.38 168.3 0.45 172.26-5.71ZM143.37 6.52L143.37 2.97 153.72 2.97 153.72-6.43 157.23-6.43 157.23 2.97 163.26 2.97 163.26-6.43 166.77-6.43 166.77 2.97 177.12 2.97 177.12 6.52 143.37 6.52ZM143.82-18L143.82-7.6Q143.82-4.68 143.24-2.09 142.65 0.49 141.95 2.43 141.25 4.37 140.65 5.54 140.04 6.71 140 6.79L140 6.79 136.94 4.95Q136.94 4.95 137.47 3.94 138.01 2.92 138.65 1.21 139.28-0.49 139.79-2.77 140.31-5.04 140.31-7.6L140.31-7.6 140.31-21.55 152.91-21.55 152.91-28.26 156.47-28.26 156.47-26.5 173.88-26.5 173.88-22.99 156.47-22.99 156.47-21.55 177.25-21.55 177.25-19.26 175.32-14.04 171.99-15.25 173.03-18 155.84-18 155.84-16.06 169.51-17.32 169.83-13.77 155.84-12.51 155.84-10.93 170.37-10.93Q170.87-10.93 170.87-11.43L170.87-11.43 170.87-13.18 174.42-13.18 174.42-11.43Q174.42-9.76 173.23-8.57 172.03-7.38 170.37-7.38L170.37-7.38 152.28-7.38 152.28-12.2 145.84-11.61 145.53-15.12 152.28-15.75 152.28-18 143.82-18Z" transform="translate(-2.2899999618530273, 28.260000228881836)"></path></g> <!----> <!----> <!----> <!----> <!----> <!----> <!----></g></g> <g data-gra="path-slogan" fill-rule="" class="tp-slogan iconsvg-slogansvg" fill="#333" transform="translate(51.55000305175781,41.04999923706055)"><!----> <!----> <g transform="scale(1, 1)"><g transform="scale(1)"><path d="M2.06-5.06L6.56-5.06L6.56-8.58L7.73-8.58L7.73 0L6.56 0L6.56-3.98L2.06-3.98L2.06 0L0.89 0L0.89-8.58L2.06-8.58L2.06-5.06ZM10.83-1.03L15.98-1.03L15.98 0L9.66 0L9.66-8.58L15.89-8.58L15.89-7.59L10.83-7.59L10.83-4.92L15.52-4.92L15.52-3.89L10.83-3.89L10.83-1.03ZM23.02-3.89L18.80-3.89L18.80 0L17.63 0L17.63-8.58L23.58-8.58L23.58-7.59L18.80-7.59L18.80-4.92L23.02-4.92L23.02-3.89ZM26.06-1.03L31.22-1.03L31.22 0L24.89 0L24.89-8.58L31.13-8.58L31.13-7.59L26.06-7.59L26.06-4.92L30.75-4.92L30.75-3.89L26.06-3.89L26.06-1.03ZM32.91-8.58L34.08-8.58L34.08 0L32.91 0L32.91-8.58ZM41.58-7.59L38.67-7.59L38.67-8.58L45.61-8.58L45.61-7.59L42.70-7.59L42.70 0L41.58 0L41.58-7.59ZM52.31 0L51.47-2.48L48-2.48L47.11 0L45.94 0L49.17-8.58L50.48-8.58L53.58 0L52.31 0ZM49.73-7.31L48.38-3.52L51.05-3.52L49.78-7.31L49.73-7.31ZM54.80-8.58L55.97-8.58L55.97 0L54.80 0L54.80-8.58ZM64.69-8.58L61.78-4.41L64.83 0L63.38 0L61.03-3.52L58.69 0L57.28 0L60.38-4.41L57.47-8.58L58.92-8.58L61.08-5.30L63.28-8.58L64.69-8.58ZM71.58-3.19L71.58-8.58L72.75-8.58L72.75-3.05Q72.61 0.05 69.23 0.14L69.23 0.14Q66.09 0.05 65.95-2.86L65.95-2.86L65.95-8.58L67.13-8.58L67.13-3.19Q67.17-0.84 69.28-0.80L69.28-0.80Q71.58-0.84 71.58-3.19L71.58-3.19Z" transform="translate(-0.890625, 8.578125)"></path></g></g></g></g></g><defs v-gra="od"></defs></svg>